<svg xmlns="http://www.w3.org/2000/svg" viewBox="0 0 30 30"><defs><style>.cls-1{isolation:isolate;}.cls-2{fill:#1db7eb;}.cls-3{fill:#fff;}</style></defs><title>twitter</title><g id="Ellipse_1" data-name="Ellipse 1" class="cls-1"><g id="Ellipse_1-2" data-name="Ellipse 1"><circle class="cls-2" cx="15" cy="15" r="15"/></g></g><g id="_" data-name=""><path class="cls-3" d="M21,11.69c0,.13,0,.26,0,.39a8.63,8.63,0,0,1-8.86,8.54,9,9,0,0,1-4.78-1.35,6.58,6.58,0,0,0,.75,0A6.39,6.39,0,0,0,12,18,3.11,3.11,0,0,1,9.09,16a4.08,4.08,0,0,0,.59,0,3.42,3.42,0,0,0,.82-.1A3,3,0,0,1,8,12.95v0a3.23,3.23,0,0,0,1.41.38A3,3,0,0,1,8,10.79a2.9,2.9,0,0,1,.42-1.51,9,9,0,0,0,6.42,3.14,3.26,3.26,0,0,1-.08-.69,3.06,3.06,0,0,1,3.12-3,3.16,3.16,0,0,1,2.28.95,6.28,6.28,0,0,0,2-.72,3,3,0,0,1-1.37,1.65,6.43,6.43,0,0,0,1.79-.46A6.56,6.56,0,0,1,21,11.69Z"/></g></svg>